<svg width="342" height="418" viewBox="0 0 342 418" fill="none" xmlns="http://www.w3.org/2000/svg">
<g id="Asset 5 1">
<g id="Layer 1">
<g id="Group 1">
<g id="Group">
<g id="Group_2">
<path id="Vector" d="M146.66 193.418C107.06 193.418 74.9648 225.513 74.9648 265.113C74.9648 304.712 107.06 336.808 146.66 336.808C186.259 336.808 218.355 304.712 218.355 265.113C218.355 225.513 186.259 193.418 146.66 193.418ZM146.66 314.742C119.245 314.742 97.0305 292.528 97.0305 265.113C97.0305 237.698 119.245 215.484 146.66 215.484C174.075 215.484 196.289 237.698 196.289 265.113C196.289 292.528 174.075 314.742 146.66 314.742Z" fill="#6EB5FF"/>
<path id="Vector_2" d="M218.355 103.465H197.273V263.255H218.355V103.465Z" fill="#6EB5FF"/>
</g>
<g id="Group_3">
<path id="Vector_3" d="M199.391 250.811C159.791 250.811 127.696 282.907 127.696 322.506C127.696 362.105 159.791 394.201 199.391 394.201C238.99 394.201 271.086 362.105 271.086 322.506C271.086 282.907 238.99 250.811 199.391 250.811ZM199.391 372.135C171.976 372.135 149.762 349.921 149.762 322.506C149.762 295.091 171.976 272.877 199.391 272.877C226.806 272.877 249.02 295.091 249.02 322.506C249.02 349.921 226.806 372.135 199.391 372.135Z" fill="#FF530D"/>
<path id="Vector_4" d="M149.242 160.858H128.16V320.649H149.242V160.858Z" fill="#FF530D"/>
</g>
<g id="Clip path group">
<mask id="mask0_0_1" style="mask-type:luminance" maskUnits="userSpaceOnUse" x="71" y="99" width="152" height="242">
<g id="clippath">
<path id="Vector_5" d="M222.07 99.75H71.25V340.523H222.07V99.75ZM128.16 221.037V193.975C134.215 192.396 140.419 191.56 146.641 191.56C147.514 191.56 148.369 191.598 149.242 191.635V217.434C148.294 217.378 147.421 217.341 146.641 217.341C140.252 217.341 134.03 218.585 128.179 221.037H128.16ZM193.726 273.192C194.19 270.481 194.432 267.769 194.432 265.113C194.432 260.358 193.726 255.677 192.333 251.164C194.655 250.941 196.995 250.811 199.391 250.811C206.635 250.811 213.618 251.888 220.212 253.894V263.255L220.175 263.293V263.813C220.212 264.24 220.212 264.667 220.212 265.113C220.212 269.032 219.878 273.025 219.228 277C213.154 274.344 206.449 272.877 199.391 272.877C197.478 272.877 195.583 272.988 193.726 273.211V273.192Z" fill="white"/>
</g>
</mask>
<g mask="url(#mask0_0_1)">
<g id="Group_4">
<g id="Group_5">
<path id="Vector_6" d="M146.66 193.418C107.06 193.418 74.9648 225.513 74.9648 265.113C74.9648 304.712 107.06 336.808 146.66 336.808C186.259 336.808 218.355 304.712 218.355 265.113C218.355 225.513 186.259 193.418 146.66 193.418ZM146.66 314.742C119.245 314.742 97.0305 292.528 97.0305 265.113C97.0305 237.698 119.245 215.484 146.66 215.484C174.075 215.484 196.289 237.698 196.289 265.113C196.289 292.528 174.075 314.742 146.66 314.742Z" fill="#FFA000"/>
<path id="Vector_7" d="M218.668 -29.3162H197.293V263.6H218.668V-29.3162Z" fill="#FFA000"/>
</g>
</g>
</g>
</g>
</g>
<path id="Vector_8" d="M218.5 -29.2917H197.125V235.125H218.5V-29.2917Z" fill="#FFA000"/>
<path id="Vector_9" d="M149.625 -29.2917H128.25V235.125H149.625V-29.2917Z" fill="#FF530D"/>
</g>
</g>
</g>
</svg>
